<?xml version="1.0" encoding="utf-8"?>
<!-- Generator: Adobe Illustrator 16.0.0, SVG Export Plug-In . SVG Version: 6.00 Build 0)  -->
<!DOCTYPE svg PUBLIC "-//W3C//DTD SVG 1.1//EN" "http://www.w3.org/Graphics/SVG/1.1/DTD/svg11.dtd">
<svg version="1.1" id="Layer_1" xmlns="http://www.w3.org/2000/svg" xmlns:xlink="http://www.w3.org/1999/xlink" x="0px" y="0px"
	 width="346px" height="252px" viewBox="0 0 346 252" enable-background="new 0 0 346 252" xml:space="preserve">
<g>
	<path d="M38.506,220.091c-2.607,0-5.008-0.462-7.197-1.378c-2.193-0.919-4.068-2.181-5.627-3.794
		c-1.562-1.609-2.785-3.51-3.674-5.698c-0.885-2.188-1.325-4.56-1.325-7.103c0-2.542,0.44-4.909,1.325-7.1
		c0.889-2.19,2.111-4.091,3.674-5.702c1.559-1.607,3.434-2.871,5.627-3.792c2.189-0.918,4.59-1.376,7.197-1.376
		c2.609,0,5.008,0.458,7.201,1.376c2.184,0.921,4.063,2.185,5.626,3.792c1.562,1.611,2.784,3.512,3.672,5.702s1.323,4.558,1.323,7.1
		c0,2.543-0.436,4.914-1.323,7.103s-2.11,4.089-3.672,5.698c-1.562,1.613-3.442,2.875-5.626,3.794
		C43.514,219.629,41.115,220.091,38.506,220.091z M38.506,215.741c1.969,0,3.737-0.363,5.315-1.086
		c1.576-0.728,2.931-1.699,4.058-2.924c1.128-1.225,2-2.664,2.607-4.322c0.611-1.66,0.919-3.423,0.919-5.291
		c0-1.867-0.308-3.63-0.919-5.29c-0.607-1.656-1.479-3.102-2.607-4.322c-1.127-1.223-2.481-2.198-4.058-2.924
		c-1.578-0.723-3.347-1.088-5.315-1.088c-1.963,0-3.734,0.365-5.311,1.088c-1.582,0.726-2.933,1.701-4.061,2.924
		c-1.129,1.221-1.996,2.666-2.607,4.322c-0.613,1.66-0.922,3.423-0.922,5.29c0,1.868,0.309,3.631,0.922,5.291
		c0.611,1.658,1.479,3.098,2.607,4.322c1.128,1.225,2.479,2.196,4.061,2.924C34.771,215.378,36.543,215.741,38.506,215.741z"/>
	<path d="M59.133,196.322h5.026l6.858,17.53l6.568-17.53h4.641l-8.986,22.9h-4.785L59.133,196.322z"/>
	<path d="M89.324,209.364c0,0.999,0.221,1.911,0.658,2.729c0.43,0.822,0.998,1.524,1.71,2.1c0.708,0.583,1.529,1.038,2.464,1.354
		c0.934,0.322,1.901,0.484,2.896,0.484c1.353,0,2.527-0.315,3.529-0.945c0.998-0.625,1.912-1.451,2.752-2.483l3.289,2.509
		c-2.42,3.128-5.8,4.685-10.149,4.685c-1.804,0-3.438-0.302-4.903-0.914c-1.466-0.614-2.704-1.459-3.721-2.538
		c-1.013-1.078-1.79-2.348-2.34-3.813c-0.553-1.463-0.822-3.053-0.822-4.76c0-1.708,0.299-3.292,0.891-4.758
		c0.598-1.466,1.418-2.736,2.466-3.817c1.05-1.08,2.296-1.924,3.745-2.538c1.444-0.606,3.026-0.918,4.732-0.918
		c2.029,0,3.748,0.358,5.147,1.063c1.399,0.711,2.55,1.635,3.45,2.777c0.909,1.146,1.559,2.434,1.961,3.866
		c0.4,1.437,0.604,2.888,0.604,4.375v1.543H89.324z M103.047,205.886c-0.033-0.965-0.188-1.851-0.459-2.657
		c-0.275-0.803-0.684-1.503-1.232-2.102c-0.552-0.593-1.23-1.061-2.055-1.399c-0.817-0.338-1.779-0.509-2.872-0.509
		c-1.062,0-2.036,0.206-2.923,0.603c-0.889,0.402-1.637,0.929-2.247,1.572c-0.616,0.647-1.087,1.36-1.423,2.151
		c-0.34,0.789-0.512,1.568-0.512,2.341H103.047z"/>
	<path d="M112.898,196.322h4.35v3.526h0.096c0.29-0.612,0.681-1.168,1.156-1.668c0.49-0.499,1.025-0.925,1.621-1.278
		c0.598-0.356,1.248-0.638,1.957-0.848c0.708-0.21,1.418-0.315,2.129-0.315c0.703,0,1.351,0.096,1.93,0.288l-0.192,4.688
		c-0.355-0.093-0.71-0.175-1.065-0.24c-0.354-0.062-0.705-0.094-1.061-0.094c-2.129,0-3.754,0.595-4.879,1.784
		c-1.127,1.193-1.691,3.044-1.691,5.555v11.503h-4.35V196.322z"/>
	<path d="M152.852,234.783h-4.348v-18.85h-0.098c-0.775,1.193-1.883,2.138-3.335,2.826c-1.446,0.695-2.993,1.036-4.64,1.036
		c-1.766,0-3.369-0.302-4.799-0.914c-1.436-0.614-2.658-1.459-3.675-2.538c-1.017-1.078-1.794-2.348-2.343-3.813
		c-0.547-1.463-0.819-3.053-0.819-4.76c0-1.675,0.272-3.246,0.819-4.709c0.549-1.464,1.326-2.747,2.343-3.843
		c1.017-1.093,2.239-1.947,3.675-2.562c1.43-0.606,3.033-0.918,4.799-0.918c1.553,0,3.054,0.343,4.523,1.017
		c1.461,0.675,2.613,1.627,3.451,2.848h0.098v-3.281h4.348V234.783z M140.967,199.8c-1.158,0-2.208,0.204-3.141,0.604
		c-0.932,0.4-1.727,0.95-2.367,1.643c-0.645,0.693-1.144,1.529-1.497,2.509c-0.351,0.983-0.532,2.053-0.532,3.215
		c0,1.158,0.182,2.233,0.532,3.215c0.354,0.979,0.853,1.817,1.497,2.507c0.641,0.694,1.436,1.244,2.367,1.645
		c0.933,0.404,1.982,0.604,3.141,0.604s2.203-0.2,3.141-0.604c0.936-0.4,1.719-0.95,2.363-1.645
		c0.649-0.689,1.146-1.527,1.504-2.507c0.353-0.981,0.529-2.057,0.529-3.215c0-1.162-0.177-2.231-0.529-3.215
		c-0.357-0.979-0.854-1.815-1.504-2.509c-0.645-0.692-1.428-1.242-2.363-1.643C143.17,200.004,142.125,199.8,140.967,199.8z"/>
	<path d="M179.711,219.223h-4.348v-3.526h-0.096c-0.553,1.223-1.498,2.21-2.854,2.966c-1.351,0.759-2.914,1.134-4.686,1.134
		c-1.126,0-2.184-0.167-3.186-0.508c-1-0.334-1.882-0.858-2.633-1.57c-0.762-0.707-1.363-1.617-1.816-2.723
		c-0.449-1.116-0.675-2.428-0.675-3.939v-14.733h4.351v13.524c0,1.061,0.141,1.971,0.433,2.729c0.29,0.758,0.677,1.368,1.161,1.839
		c0.485,0.464,1.037,0.801,1.667,1.015c0.626,0.208,1.28,0.312,1.955,0.312c0.897,0,1.741-0.146,2.515-0.434
		c0.771-0.291,1.447-0.75,2.027-1.38c0.578-0.628,1.027-1.423,1.35-2.395c0.322-0.96,0.486-2.103,0.486-3.425v-11.786h4.348V219.223
		z"/>
	<path d="M186.377,199.121c1.221-1.125,2.64-1.971,4.25-2.534c1.609-0.563,3.221-0.848,4.832-0.848c1.672,0,3.116,0.21,4.321,0.63
		c1.209,0.42,2.198,0.979,2.974,1.689c0.77,0.709,1.343,1.521,1.713,2.439c0.371,0.919,0.557,1.877,0.557,2.876v11.692
		c0,0.803,0.016,1.544,0.049,2.22c0.031,0.677,0.08,1.322,0.143,1.937h-3.864c-0.093-1.162-0.147-2.321-0.147-3.481h-0.094
		c-0.966,1.483-2.109,2.526-3.43,3.141c-1.32,0.612-2.848,0.914-4.59,0.914c-1.062,0-2.079-0.144-3.039-0.43
		c-0.967-0.292-1.818-0.725-2.539-1.306c-0.725-0.58-1.298-1.295-1.716-2.154c-0.416-0.847-0.628-1.838-0.628-2.97
		c0-1.48,0.33-2.717,0.991-3.716c0.657-0.999,1.562-1.812,2.702-2.441c1.146-0.626,2.481-1.077,4.014-1.356
		c1.527-0.271,3.166-0.408,4.903-0.408h3.186v-0.966c0-0.581-0.112-1.154-0.337-1.736c-0.225-0.583-0.562-1.104-1.014-1.57
		c-0.449-0.466-1.019-0.839-1.689-1.107c-0.678-0.276-1.482-0.416-2.42-0.416c-0.836,0-1.566,0.082-2.195,0.241
		c-0.627,0.163-1.199,0.361-1.713,0.606c-0.516,0.24-0.987,0.519-1.401,0.844c-0.42,0.322-0.824,0.625-1.205,0.917L186.377,199.121z
		 M198.648,208.206c-1.033,0-2.087,0.055-3.168,0.167c-1.078,0.115-2.061,0.334-2.942,0.655c-0.89,0.32-1.615,0.77-2.171,1.351
		c-0.569,0.583-0.85,1.319-0.85,2.224c0,1.317,0.439,2.267,1.326,2.846c0.886,0.583,2.087,0.868,3.602,0.868
		c1.191,0,2.201-0.196,3.041-0.601c0.838-0.4,1.514-0.925,2.031-1.568c0.516-0.644,0.885-1.36,1.109-2.151
		c0.225-0.785,0.337-1.568,0.337-2.344v-1.446H198.648z"/>
	<path d="M211.688,182.698h4.353v36.524h-4.353V182.698z"/>
	<path d="M222.271,188.107c0-0.869,0.314-1.617,0.938-2.245c0.629-0.626,1.379-0.94,2.246-0.94c0.869,0,1.623,0.314,2.247,0.94
		c0.626,0.628,0.942,1.376,0.942,2.245c0,0.874-0.316,1.619-0.942,2.248c-0.624,0.63-1.378,0.941-2.247,0.941
		c-0.867,0-1.617-0.312-2.246-0.941C222.586,189.727,222.271,188.981,222.271,188.107z M223.28,196.322h4.352v22.9h-4.352V196.322z"
		/>
	<path d="M236.23,200.09h-4.928v-3.768h4.928v-5.123c0-3.059,0.583-5.337,1.765-6.832c1.173-1.502,3.191-2.25,6.057-2.25
		c0.483,0,0.995,0.02,1.525,0.051c0.528,0.032,1.103,0.13,1.714,0.289l-0.479,3.864c-0.424-0.16-0.828-0.272-1.211-0.339
		c-0.385-0.062-0.807-0.097-1.255-0.097c-0.807,0-1.449,0.124-1.935,0.361c-0.483,0.243-0.862,0.589-1.132,1.04
		c-0.277,0.453-0.454,0.989-0.533,1.619c-0.084,0.628-0.119,1.347-0.119,2.149v5.267h5.166v3.768h-5.217v19.133h-4.346V200.09z"/>
	<path d="M249.948,188.107c0-0.869,0.315-1.617,0.94-2.245c0.631-0.626,1.377-0.94,2.249-0.94c0.871,0,1.615,0.314,2.245,0.94
		c0.626,0.628,0.943,1.376,0.943,2.245c0,0.874-0.317,1.619-0.943,2.248c-0.63,0.63-1.374,0.941-2.245,0.941
		c-0.872,0-1.618-0.312-2.249-0.941C250.264,189.727,249.948,188.981,249.948,188.107z M250.963,196.322h4.348v22.9h-4.348V196.322z
		"/>
	<path d="M265.499,209.364c0,0.999,0.22,1.911,0.655,2.729c0.436,0.822,1.011,1.524,1.715,2.1c0.709,0.583,1.531,1.038,2.464,1.354
		c0.935,0.322,1.903,0.484,2.896,0.484c1.355,0,2.531-0.315,3.53-0.945c0.997-0.625,1.916-1.451,2.754-2.483l3.284,2.509
		c-2.416,3.128-5.797,4.685-10.145,4.685c-1.807,0-3.439-0.302-4.904-0.914c-1.465-0.614-2.705-1.459-3.719-2.538
		c-1.016-1.078-1.793-2.348-2.34-3.813c-0.552-1.463-0.822-3.053-0.822-4.76c0-1.708,0.296-3.292,0.893-4.758
		c0.593-1.466,1.415-2.736,2.463-3.817c1.045-1.08,2.297-1.924,3.741-2.538c1.452-0.606,3.03-0.918,4.734-0.918
		c2.033,0,3.747,0.358,5.149,1.063c1.398,0.711,2.553,1.635,3.451,2.777c0.902,1.146,1.555,2.434,1.959,3.866
		c0.402,1.437,0.603,2.888,0.603,4.375v1.543H265.499z M279.219,205.886c-0.027-0.965-0.18-1.851-0.457-2.657
		c-0.271-0.803-0.684-1.503-1.229-2.102c-0.548-0.593-1.232-1.061-2.053-1.399c-0.819-0.338-1.784-0.509-2.876-0.509
		c-1.062,0-2.037,0.206-2.924,0.603c-0.885,0.402-1.633,0.929-2.244,1.572c-0.613,0.647-1.091,1.36-1.426,2.151
		c-0.342,0.789-0.511,1.568-0.511,2.341H279.219z"/>
	<path d="M312.023,219.223h-4.346v-3.289h-0.098c-0.838,1.225-1.992,2.173-3.455,2.848c-1.466,0.68-2.975,1.015-4.516,1.015
		c-1.774,0-3.374-0.302-4.807-0.914c-1.432-0.614-2.658-1.463-3.674-2.565c-1.014-1.086-1.795-2.361-2.344-3.812
		c-0.546-1.449-0.818-3.027-0.818-4.734c0-1.708,0.272-3.292,0.818-4.758c0.549-1.466,1.33-2.736,2.344-3.817
		c1.016-1.08,2.242-1.924,3.674-2.538c1.433-0.606,3.032-0.918,4.807-0.918c1.643,0,3.186,0.347,4.636,1.038
		c1.45,0.696,2.563,1.637,3.335,2.826h0.098v-16.905h4.346V219.223z M300.141,215.741c1.156,0,2.203-0.2,3.139-0.604
		c0.935-0.4,1.72-0.95,2.367-1.645c0.643-0.689,1.145-1.527,1.492-2.507c0.359-0.981,0.539-2.057,0.539-3.215
		c0-1.162-0.18-2.231-0.539-3.215c-0.348-0.979-0.85-1.815-1.492-2.509c-0.647-0.692-1.433-1.242-2.367-1.643
		c-0.936-0.4-1.982-0.604-3.139-0.604c-1.158,0-2.209,0.204-3.141,0.604s-1.723,0.95-2.368,1.643
		c-0.642,0.693-1.143,1.529-1.493,2.509c-0.361,0.983-0.535,2.053-0.535,3.215c0,1.158,0.174,2.233,0.535,3.215
		c0.351,0.979,0.852,1.817,1.493,2.507c0.646,0.694,1.437,1.244,2.368,1.645C297.932,215.541,298.982,215.741,300.141,215.741z"/>
	<path d="M322.025,219.51c-0.873,0-1.623-0.314-2.247-0.944c-0.63-0.626-0.944-1.374-0.944-2.249c0-0.868,0.314-1.617,0.944-2.244
		c0.624-0.626,1.374-0.939,2.247-0.939c0.867,0,1.613,0.313,2.24,0.939c0.629,0.627,0.941,1.376,0.941,2.244
		c0,0.875-0.312,1.623-0.941,2.249C323.639,219.195,322.893,219.51,322.025,219.51z"/>
	<path fill="none" stroke="#4B846A" stroke-width="4" stroke-miterlimit="10" d="M91.566,158.955c-10.235,0-19.648-1.8-28.241-5.403
		c-8.595-3.6-15.947-8.556-22.081-14.874c-6.129-6.315-10.926-13.771-14.404-22.361c-3.473-8.591-5.205-17.882-5.205-27.86
		c0-9.981,1.732-19.261,5.205-27.855c3.479-8.593,8.275-16.048,14.404-22.363c6.134-6.316,13.486-11.28,22.081-14.874
		c8.593-3.605,18.006-5.407,28.241-5.407c10.232,0,19.647,1.802,28.238,5.407c8.585,3.594,15.947,8.558,22.079,14.874
		c6.124,6.315,10.921,13.771,14.402,22.363c3.472,8.595,5.209,17.874,5.209,27.855c0,9.979-1.737,19.27-5.209,27.86
		c-3.481,8.591-8.278,16.046-14.402,22.361c-6.132,6.318-13.494,11.274-22.079,14.874
		C111.214,157.155,101.799,158.955,91.566,158.955z M91.566,141.901c7.7,0,14.652-1.422,20.845-4.264
		c6.185-2.848,11.499-6.663,15.916-11.472c4.426-4.797,7.839-10.446,10.233-16.96c2.398-6.505,3.605-13.418,3.605-20.75
		c0-7.323-1.207-14.242-3.605-20.753c-2.395-6.51-5.808-12.16-10.233-16.96c-4.417-4.799-9.731-8.624-15.916-11.464
		c-6.192-2.846-13.145-4.265-20.845-4.265c-7.709,0-14.657,1.419-20.842,4.265c-6.2,2.84-11.504,6.665-15.924,11.464
		c-4.428,4.8-7.839,10.45-10.235,16.96c-2.4,6.511-3.598,13.43-3.598,20.753c0,7.332,1.197,14.245,3.598,20.75
		c2.396,6.514,5.808,12.163,10.235,16.96c4.42,4.809,9.724,8.624,15.924,11.472C76.909,140.479,83.857,141.901,91.566,141.901z"/>
	<path fill="#4B846A" d="M326.179,155.544h-77.321c-9.475,0-18.442-1.704-26.91-5.117c-8.465-3.413-15.858-8.149-22.173-14.214
		c-6.317-6.066-11.308-13.294-14.968-21.696c-3.672-8.404-5.496-17.598-5.496-27.576c0-9.853,1.762-18.981,5.298-27.384
		c3.539-8.402,8.435-15.698,14.693-21.891c6.255-6.188,13.576-11.022,21.984-14.495c8.4-3.476,17.525-5.215,27.384-5.215
		c9.469,0,18.352,1.704,26.631,5.119c8.266,3.411,15.502,8.115,21.691,14.118c6.191,5.998,11.084,13.075,14.693,21.227
		c3.596,8.147,5.398,17.026,5.398,26.627c0,5.684-0.664,11.275-1.986,16.766c-1.335,5.501-3.296,10.651-5.881,15.448
		c-2.593,4.807-5.812,9.096-9.664,12.886c-3.857,3.79-8.244,6.826-13.174,9.101v0.377h39.8V155.544z M248.1,138.488
		c7.328,0,14.055-1.356,20.18-4.073c6.131-2.719,11.373-6.447,15.73-11.182c4.359-4.74,7.744-10.326,10.146-16.773
		c2.393-6.443,3.602-13.327,3.602-20.654c0-7.079-1.24-13.708-3.701-19.899c-2.465-6.188-5.908-11.561-10.324-16.112
		c-4.432-4.548-9.668-8.147-15.732-10.802c-6.069-2.646-12.697-3.978-19.9-3.978c-7.072,0-13.614,1.332-19.612,3.978
		c-6.004,2.654-11.215,6.254-15.634,10.802c-4.428,4.552-7.899,9.89-10.426,16.016c-2.529,6.13-3.791,12.665-3.791,19.619
		c0,7.323,1.199,14.207,3.604,20.654c2.398,6.441,5.783,12.064,10.135,16.862c4.354,4.807,9.572,8.593,15.64,11.374
		C234.075,137.098,240.772,138.488,248.1,138.488z"/>
</g>
</svg>
