<?xml version="1.0" encoding="utf-8"?>
<!-- Generator: Adobe Illustrator 16.0.0, SVG Export Plug-In . SVG Version: 6.00 Build 0)  -->
<!DOCTYPE svg PUBLIC "-//W3C//DTD SVG 1.1//EN" "http://www.w3.org/Graphics/SVG/1.1/DTD/svg11.dtd">
<svg version="1.1" id="Layer_1" xmlns="http://www.w3.org/2000/svg" xmlns:xlink="http://www.w3.org/1999/xlink" x="0px" y="0px"
	 width="658px" height="156px" viewBox="0 0 658 156" enable-background="new 0 0 658 156" xml:space="preserve">
<g>
	<path d="M68.041,106.674c-5.168,0-9.918-0.908-14.256-2.726c-4.339-1.817-8.053-4.321-11.146-7.511
		c-3.095-3.19-5.518-6.949-7.271-11.29c-1.756-4.335-2.63-9.024-2.63-14.062c0-5.038,0.874-9.724,2.63-14.062
		c1.754-4.339,4.177-8.104,7.271-11.292c3.093-3.188,6.807-5.692,11.146-7.51c4.338-1.819,9.088-2.729,14.256-2.729
		c5.166,0,9.918,0.909,14.257,2.729c4.331,1.817,8.052,4.321,11.146,7.51c3.092,3.188,5.514,6.953,7.271,11.292
		c1.751,4.339,2.627,9.024,2.627,14.062c0,5.037-0.876,9.727-2.627,14.062c-1.758,4.341-4.18,8.1-7.271,11.29
		c-3.095,3.189-6.815,5.693-11.146,7.511C77.959,105.766,73.207,106.674,68.041,106.674z M68.041,98.062
		c3.893,0,7.398-0.716,10.524-2.15c3.124-1.438,5.807-3.362,8.037-5.787c2.233-2.426,3.957-5.277,5.164-8.564
		c1.213-3.285,1.822-6.773,1.822-10.475c0-3.7-0.609-7.189-1.822-10.478c-1.207-3.282-2.931-6.138-5.164-8.562
		c-2.23-2.423-4.913-4.353-8.037-5.788c-3.126-1.433-6.632-2.154-10.524-2.154c-3.89,0-7.396,0.722-10.52,2.154
		c-3.131,1.436-5.806,3.365-8.042,5.788c-2.231,2.425-3.954,5.28-5.165,8.562c-1.215,3.288-1.82,6.777-1.82,10.478
		c0,3.701,0.605,7.189,1.82,10.475c1.211,3.287,2.934,6.139,5.165,8.564c2.236,2.425,4.911,4.349,8.042,5.787
		C60.645,97.347,64.151,98.062,68.041,98.062z"/>
	<path d="M108.892,59.604h9.95l13.582,34.728l13.019-34.728h9.186l-17.798,45.35h-9.476L108.892,59.604z"/>
	<path d="M168.687,85.436c0,1.978,0.435,3.778,1.294,5.404c0.863,1.629,1.989,3.012,3.395,4.161c1.4,1.151,3.027,2.045,4.877,2.679
		c1.849,0.642,3.765,0.959,5.742,0.959c2.677,0,5.004-0.623,6.984-1.865c1.975-1.246,3.792-2.887,5.453-4.926l6.505,4.972
		c-4.78,6.188-11.479,9.281-20.091,9.281c-3.574,0-6.807-0.606-9.71-1.814c-2.905-1.216-5.36-2.888-7.368-5.027
		c-2.009-2.137-3.555-4.654-4.642-7.558c-1.087-2.9-1.624-6.041-1.624-9.425c0-3.378,0.592-6.519,1.766-9.42
		c1.183-2.904,2.811-5.425,4.887-7.561c2.072-2.138,4.543-3.809,7.411-5.021c2.867-1.211,5.994-1.818,9.379-1.818
		c4.015,0,7.413,0.704,10.188,2.104c2.77,1.405,5.048,3.237,6.837,5.501c1.789,2.265,3.083,4.817,3.876,7.656
		c0.799,2.834,1.196,5.724,1.196,8.659v3.059H168.687z M195.856,78.547c-0.061-1.913-0.368-3.668-0.904-5.264
		c-0.545-1.593-1.359-2.979-2.444-4.158s-2.434-2.106-4.064-2.775c-1.621-0.674-3.526-1.006-5.695-1.006
		c-2.102,0-4.028,0.4-5.782,1.197c-1.761,0.797-3.242,1.835-4.452,3.109c-1.215,1.275-2.15,2.696-2.821,4.261
		c-0.673,1.561-1.006,3.104-1.006,4.636H195.856z"/>
	<path d="M215.377,59.604h8.611v6.985h0.189c0.573-1.212,1.342-2.312,2.294-3.303c0.96-0.986,2.023-1.834,3.206-2.532
		c1.183-0.699,2.469-1.262,3.877-1.678c1.398-0.413,2.803-0.62,4.207-0.62c1.406,0,2.68,0.19,3.824,0.572l-0.381,9.282
		c-0.703-0.191-1.401-0.35-2.104-0.479c-0.702-0.128-1.399-0.191-2.106-0.191c-4.208,0-7.429,1.183-9.662,3.54
		c-2.232,2.36-3.345,6.027-3.345,11.003v22.77h-8.611V59.604z"/>
	<path d="M294.499,135.774h-8.614V98.447h-0.19c-1.532,2.363-3.727,4.226-6.6,5.598c-2.872,1.371-5.933,2.056-9.186,2.056
		c-3.51,0-6.684-0.606-9.519-1.814c-2.839-1.216-5.266-2.888-7.271-5.027c-2.011-2.137-3.557-4.654-4.645-7.558
		c-1.081-2.9-1.621-6.041-1.621-9.425c0-3.313,0.54-6.423,1.621-9.328c1.088-2.898,2.634-5.434,4.645-7.604
		c2.006-2.166,4.433-3.856,7.271-5.069c2.835-1.211,6.009-1.818,9.519-1.818c3.063,0,6.04,0.669,8.946,2.007
		c2.9,1.339,5.184,3.222,6.839,5.648h0.19v-6.508h8.614V135.774z M270.962,66.491c-2.294,0-4.371,0.399-6.22,1.196
		c-1.848,0.798-3.414,1.881-4.689,3.255c-1.273,1.371-2.26,3.028-2.964,4.972c-0.7,1.945-1.054,4.067-1.054,6.362
		c0,2.3,0.354,4.421,1.054,6.366c0.704,1.945,1.69,3.602,2.964,4.971c1.275,1.372,2.842,2.459,4.689,3.256
		c1.849,0.797,3.926,1.193,6.22,1.193s4.366-0.396,6.221-1.193c1.844-0.797,3.411-1.884,4.684-3.256
		c1.278-1.369,2.265-3.025,2.967-4.971s1.052-4.066,1.052-6.366c0-2.295-0.35-4.417-1.052-6.362
		c-0.702-1.943-1.688-3.601-2.967-4.972c-1.272-1.374-2.84-2.457-4.684-3.255C275.328,66.891,273.256,66.491,270.962,66.491z"/>
	<path d="M347.694,104.953h-8.613v-6.985h-0.194c-1.085,2.424-2.963,4.388-5.645,5.884c-2.679,1.498-5.771,2.249-9.277,2.249
		c-2.236,0-4.336-0.335-6.316-1.005c-1.979-0.667-3.719-1.707-5.211-3.111c-1.505-1.399-2.697-3.201-3.592-5.402
		c-0.895-2.2-1.334-4.802-1.334-7.798V59.604h8.605v26.788c0,2.103,0.288,3.908,0.861,5.407c0.576,1.498,1.336,2.71,2.297,3.636
		c0.956,0.924,2.057,1.593,3.299,2.008c1.246,0.417,2.537,0.62,3.876,0.62c1.782,0,3.444-0.286,4.978-0.859
		c1.526-0.576,2.867-1.481,4.018-2.729c1.142-1.241,2.035-2.818,2.676-4.733c0.639-1.913,0.96-4.177,0.96-6.792V59.604h8.613
		V104.953z"/>
	<path d="M360.894,65.15c2.42-2.23,5.229-3.902,8.418-5.02c3.188-1.114,6.377-1.675,9.57-1.675c3.313,0,6.171,0.414,8.556,1.243
		c2.396,0.831,4.356,1.943,5.89,3.351c1.53,1.399,2.661,3.012,3.393,4.831c0.733,1.815,1.104,3.717,1.104,5.691v23.154
		c0,1.595,0.033,3.062,0.094,4.396c0.065,1.341,0.156,2.617,0.288,3.83h-7.653c-0.191-2.296-0.291-4.591-0.291-6.891h-0.191
		c-1.911,2.938-4.174,5.008-6.789,6.224c-2.617,1.208-5.648,1.814-9.094,1.814c-2.102,0-4.111-0.288-6.022-0.861
		c-1.915-0.573-3.588-1.433-5.022-2.582c-1.436-1.147-2.57-2.566-3.396-4.258c-0.83-1.688-1.246-3.651-1.246-5.884
		c0-2.934,0.655-5.388,1.964-7.368c1.3-1.976,3.092-3.587,5.356-4.831c2.264-1.241,4.912-2.134,7.942-2.681
		c3.026-0.538,6.262-0.81,9.707-0.81h6.314v-1.914c0-1.152-0.226-2.297-0.664-3.443c-0.45-1.149-1.119-2.184-2.013-3.108
		c-0.895-0.929-2.009-1.661-3.35-2.201c-1.338-0.541-2.936-0.815-4.784-0.815c-1.657,0-3.108,0.161-4.356,0.477
		c-1.24,0.319-2.374,0.721-3.393,1.198c-1.019,0.48-1.948,1.036-2.774,1.675c-0.828,0.636-1.627,1.243-2.391,1.817L360.894,65.15z
		 M385.194,83.142c-2.042,0-4.13,0.108-6.272,0.334c-2.133,0.226-4.077,0.655-5.83,1.291c-1.756,0.636-3.195,1.53-4.303,2.678
		c-1.12,1.15-1.676,2.614-1.676,4.403c0,2.615,0.875,4.494,2.628,5.641c1.754,1.15,4.13,1.721,7.13,1.721
		c2.36,0,4.366-0.394,6.027-1.193c1.659-0.796,2.998-1.83,4.019-3.109c1.019-1.275,1.753-2.692,2.203-4.257
		c0.438-1.558,0.664-3.108,0.664-4.641v-2.867H385.194z"/>
	<path d="M411.025,32.626h8.61v72.327h-8.61V32.626z"/>
	<path d="M431.979,43.341c0-1.722,0.621-3.206,1.861-4.451c1.245-1.242,2.73-1.866,4.453-1.866c1.721,0,3.202,0.624,4.443,1.866
		c1.246,1.245,1.872,2.729,1.872,4.451c0,1.723-0.626,3.205-1.872,4.451c-1.241,1.241-2.723,1.862-4.443,1.862
		c-1.723,0-3.208-0.621-4.453-1.862C432.6,46.546,431.979,45.063,431.979,43.341z M433.982,59.604h8.613v45.35h-8.613V59.604z"/>
	<path d="M459.627,67.068h-9.758v-7.465h9.758V49.463c0-6.059,1.16-10.573,3.491-13.536c2.327-2.969,6.33-4.45,12.001-4.45
		c0.961,0,1.967,0.033,3.017,0.097c1.053,0.063,2.183,0.256,3.396,0.573l-0.955,7.652c-0.829-0.316-1.63-0.54-2.392-0.67
		c-0.768-0.128-1.596-0.193-2.488-0.193c-1.593,0-2.867,0.242-3.828,0.72c-0.955,0.479-1.706,1.167-2.247,2.059
		c-0.541,0.896-0.895,1.962-1.052,3.203c-0.16,1.244-0.239,2.665-0.239,4.261v10.426h10.234v7.465h-10.328v37.885h-8.61V67.068z"/>
	<path d="M486.795,43.341c0-1.722,0.624-3.206,1.862-4.451c1.248-1.242,2.729-1.866,4.451-1.866c1.724,0,3.205,0.624,4.447,1.866
		c1.243,1.245,1.87,2.729,1.87,4.451c0,1.723-0.627,3.205-1.87,4.451c-1.242,1.241-2.724,1.862-4.447,1.862
		c-1.723,0-3.203-0.621-4.451-1.862C487.419,46.546,486.795,45.063,486.795,43.341z M488.801,59.604h8.613v45.35h-8.613V59.604z"/>
	<path d="M517.599,85.436c0,1.978,0.433,3.778,1.291,5.404c0.864,1.629,1.997,3.012,3.399,4.161
		c1.398,1.151,3.028,2.045,4.878,2.679c1.851,0.642,3.765,0.959,5.741,0.959c2.677,0,5.007-0.623,6.988-1.865
		c1.971-1.246,3.79-2.887,5.447-4.926l6.509,4.972c-4.785,6.188-11.481,9.281-20.092,9.281c-3.578,0-6.807-0.606-9.713-1.814
		c-2.9-1.216-5.357-2.888-7.367-5.027c-2.011-2.137-3.558-4.654-4.639-7.558c-1.086-2.9-1.626-6.041-1.626-9.425
		c0-3.378,0.585-6.519,1.77-9.42c1.178-2.904,2.808-5.425,4.879-7.561c2.069-2.138,4.548-3.809,7.413-5.021
		c2.873-1.211,5.997-1.818,9.379-1.818c4.017,0,7.415,0.704,10.188,2.104c2.778,1.405,5.056,3.237,6.845,5.501
		c1.781,2.265,3.074,4.817,3.873,7.656c0.798,2.834,1.192,5.724,1.192,8.659v3.059H517.599z M544.773,78.547
		c-0.066-1.913-0.373-3.668-0.911-5.264c-0.54-1.593-1.358-2.979-2.438-4.158c-1.088-1.18-2.442-2.106-4.063-2.775
		c-1.629-0.674-3.531-1.006-5.695-1.006c-2.107,0-4.038,0.4-5.789,1.197c-1.756,0.797-3.24,1.835-4.449,3.109
		c-1.208,1.275-2.152,2.696-2.825,4.261c-0.666,1.561-1.003,3.104-1.003,4.636H544.773z"/>
	<path d="M609.733,104.953h-8.612v-6.506h-0.189c-1.655,2.424-3.939,4.307-6.84,5.645c-2.906,1.34-5.883,2.009-8.944,2.009
		c-3.512,0-6.687-0.606-9.521-1.814c-2.837-1.216-5.264-2.905-7.271-5.077c-2.011-2.163-3.557-4.685-4.644-7.554
		c-1.082-2.871-1.623-5.995-1.623-9.379c0-3.378,0.541-6.519,1.623-9.42c1.087-2.904,2.633-5.425,4.644-7.561
		c2.008-2.138,4.435-3.809,7.271-5.021c2.834-1.211,6.009-1.818,9.521-1.818c3.255,0,6.311,0.686,9.185,2.056
		c2.869,1.375,5.068,3.239,6.6,5.6h0.189V32.626h8.612V104.953z M586.197,98.062c2.295,0,4.366-0.396,6.222-1.193
		c1.845-0.797,3.41-1.884,4.685-3.256c1.278-1.369,2.264-3.025,2.966-4.971s1.052-4.066,1.052-6.366c0-2.295-0.35-4.417-1.052-6.362
		c-0.702-1.943-1.688-3.601-2.966-4.972c-1.274-1.374-2.84-2.457-4.685-3.255c-1.855-0.797-3.927-1.196-6.222-1.196
		c-2.294,0-4.371,0.399-6.219,1.196c-1.848,0.798-3.411,1.881-4.688,3.255c-1.276,1.371-2.261,3.028-2.964,4.972
		c-0.708,1.945-1.053,4.067-1.053,6.362c0,2.3,0.345,4.421,1.053,6.366c0.703,1.945,1.688,3.602,2.964,4.971
		c1.276,1.372,2.84,2.459,4.688,3.256S583.903,98.062,586.197,98.062z"/>
	<path fill="#4B846A" d="M629.538,105.524c-1.723,0-3.207-0.62-4.448-1.864c-1.246-1.244-1.872-2.726-1.872-4.451
		c0-1.721,0.626-3.201,1.872-4.446c1.241-1.241,2.726-1.864,4.448-1.864c1.722,0,3.203,0.623,4.448,1.864
		c1.242,1.245,1.864,2.726,1.864,4.446c0,1.726-0.622,3.207-1.864,4.451C632.741,104.904,631.26,105.524,629.538,105.524z"/>
</g>
</svg>
